<svg width="180" height="131" viewBox="0 0 180 131" fill="none" xmlns="http://www.w3.org/2000/svg">
<path fill-rule="evenodd" clip-rule="evenodd" d="M45.3602 87.7093H110.88C111.251 87.7093 111.612 87.6729 111.96 87.6039C112.308 87.6729 112.67 87.7093 113.04 87.7093H150.48C153.264 87.7093 155.52 85.6579 155.52 83.1275C155.52 80.597 153.264 78.5457 150.48 78.5457H146.16C143.377 78.5457 141.12 76.4943 141.12 73.9638C141.12 71.4334 143.377 69.382 146.16 69.382H159.84C162.624 69.382 164.88 67.3307 164.88 64.8002C164.88 62.2697 162.624 60.2184 159.84 60.2184H144C146.784 60.2184 149.04 58.167 149.04 55.6366C149.04 53.1061 146.784 51.0548 144 51.0548H97.9202C100.704 51.0548 102.96 49.0034 102.96 46.4729C102.96 43.9425 100.704 41.8911 97.9202 41.8911H56.8802C54.0967 41.8911 51.8402 43.9425 51.8402 46.4729C51.8402 49.0034 54.0967 51.0548 56.8802 51.0548H28.0802C25.2967 51.0548 23.0402 53.1061 23.0402 55.6366C23.0402 58.167 25.2967 60.2184 28.0802 60.2184H46.0802C48.8637 60.2184 51.1202 62.2697 51.1202 64.8002C51.1202 67.3307 48.8637 69.382 46.0802 69.382H17.2802C14.4967 69.382 12.2402 71.4334 12.2402 73.9638C12.2402 76.4943 14.4967 78.5457 17.2802 78.5457H45.3602C42.5767 78.5457 40.3202 80.597 40.3202 83.1275C40.3202 85.6579 42.5767 87.7093 45.3602 87.7093ZM162.72 87.7091C165.504 87.7091 167.76 85.6578 167.76 83.1273C167.76 80.5968 165.504 78.5455 162.72 78.5455C159.937 78.5455 157.68 80.5968 157.68 83.1273C157.68 85.6578 159.937 87.7091 162.72 87.7091Z" fill="#F2F4F7"/>
<path fill-rule="evenodd" clip-rule="evenodd" d="M114.066 84.6286C115.004 83.4809 115.846 82.2805 116.594 81.0382C118.238 78.3059 119.423 75.3704 120.147 72.3439C120.88 69.2831 121.141 66.1292 120.929 62.9982C120.744 60.2661 120.199 57.5516 119.292 54.9316C118.392 52.3323 117.137 49.8261 115.525 47.4884C114.564 46.0953 113.476 44.7621 112.262 43.5046C110.479 41.6583 108.523 40.08 106.445 38.7704C104.212 37.3634 101.838 36.2666 99.3852 35.4815C96.3135 34.4982 93.1186 34.0036 89.9231 34C87.4368 33.9972 84.9502 34.2917 82.5212 34.8845C79.7867 35.5519 77.1251 36.5975 74.619 38.0228C72.416 39.2757 70.3332 40.822 68.4267 42.6629C66.0308 44.9763 64.0901 47.5842 62.6063 50.3751C61.1536 53.1076 60.1389 56.0155 59.5638 58.9945C58.9713 62.0637 58.8454 65.2083 59.188 68.3141C59.632 72.3396 60.8629 76.3 62.8847 79.9464C64.1784 82.2796 65.7958 84.4844 67.7381 86.4954C70.8215 89.688 74.4214 92.0796 78.2769 93.6652C82.9657 95.5934 88.0326 96.3298 93.0088 95.8651C97.1853 95.4752 101.298 94.2392 105.069 92.1521" fill="white"/>
<path d="M114.066 84.6286C115.004 83.4809 115.846 82.2805 116.594 81.0382C118.238 78.3059 119.423 75.3704 120.147 72.3439C120.88 69.2831 121.141 66.1292 120.929 62.9982C120.744 60.2661 120.199 57.5516 119.292 54.9316C118.392 52.3323 117.137 49.8261 115.525 47.4884C114.564 46.0953 113.476 44.7621 112.262 43.5046C110.479 41.6583 108.523 40.08 106.445 38.7704C104.212 37.3634 101.838 36.2666 99.3852 35.4815C96.3135 34.4982 93.1186 34.0036 89.9231 34C87.4368 33.9972 84.9502 34.2917 82.5212 34.8845C79.7867 35.5519 77.1251 36.5975 74.619 38.0228C72.416 39.2757 70.3332 40.822 68.4267 42.6629C66.0308 44.9763 64.0901 47.5842 62.6063 50.3751C61.1536 53.1076 60.1389 56.0155 59.5638 58.9945C58.9713 62.0637 58.8454 65.2083 59.188 68.3141C59.632 72.3396 60.8629 76.3 62.8847 79.9464C64.1784 82.2796 65.7958 84.4844 67.7381 86.4954C70.8215 89.688 74.4214 92.0796 78.2769 93.6652C82.9657 95.5934 88.0326 96.3297 93.0088 95.8651C97.1853 95.4752 101.298 94.2392 105.069 92.1521" stroke="#667085" stroke-width="1.68478" stroke-linecap="round" stroke-linejoin="round"/>
<path d="M118.304 66.7638C118.112 66.7672 117.919 66.7689 117.725 66.7689C100.706 66.7689 86.7712 53.5006 85.6035 36.6958C72.0573 38.8325 61.6958 50.6138 61.6958 64.8273C61.6958 80.5548 74.3825 93.3045 90.0324 93.3045C105.035 93.3045 117.314 81.5882 118.304 66.7638Z" fill="#F2F4F7"/>
<path d="M89.9998 51.6665V56.9998M89.9998 72.9998V78.3332M80.5732 55.5732L84.3465 59.3465M95.6532 70.6532L99.4265 74.4265M76.6665 64.9998H81.9998M97.9998 64.9998H103.333M80.5732 74.4265L84.3465 70.6532M95.6532 59.3465L99.4265 55.5732" stroke="url(#paint0_linear_1059_5396)" stroke-width="2.66667" stroke-linecap="round" stroke-linejoin="round"/>
<path fill-rule="evenodd" clip-rule="evenodd" d="M82 40.5853C80.6931 41.0756 79.4165 41.6714 78.1832 42.3729C76.2667 43.4631 74.4547 44.8085 72.7961 46.4102C72.1162 47.0667 71.4785 47.7505 70.8829 48.4582" fill="white"/>
<path d="M82 40.5853C80.6931 41.0756 79.4165 41.6714 78.1832 42.3729C76.2667 43.4631 74.4547 44.8085 72.7961 46.4102C72.1162 47.0667 71.4785 47.7505 70.8829 48.4582" stroke="#98A2B3" stroke-width="1.67539" stroke-linecap="round"/>
<path fill-rule="evenodd" clip-rule="evenodd" d="M69.04 50.9222C68.5664 51.6379 68.1306 52.3715 67.7326 53.1202C67.4386 53.6732 67.1653 54.2345 66.9125 54.8029" fill="white"/>
<path d="M69.04 50.9222C68.5664 51.6379 68.1306 52.3715 67.7326 53.1202C67.4386 53.6732 67.1653 54.2345 66.9125 54.8029" stroke="#98A2B3" stroke-width="1.67539" stroke-linecap="round"/>
<path d="M135 11V17" stroke="#98A2B3" stroke-width="2.5" stroke-linecap="round" stroke-linejoin="round"/>
<path d="M135 25V31" stroke="#98A2B3" stroke-width="2.5" stroke-linecap="round" stroke-linejoin="round"/>
<path d="M125 21H131" stroke="#98A2B3" stroke-width="2.5" stroke-linecap="round" stroke-linejoin="round"/>
<path d="M139 21H145" stroke="#98A2B3" stroke-width="2.5" stroke-linecap="round" stroke-linejoin="round"/>
<path d="M51 90V94" stroke="#98A2B3" stroke-width="2.5" stroke-linecap="round" stroke-linejoin="round"/>
<path d="M51 102V106" stroke="#98A2B3" stroke-width="2.5" stroke-linecap="round" stroke-linejoin="round"/>
<path d="M43 98H47" stroke="#98A2B3" stroke-width="2.5" stroke-linecap="round" stroke-linejoin="round"/>
<path d="M55 98H59" stroke="#98A2B3" stroke-width="2.5" stroke-linecap="round" stroke-linejoin="round"/>
<defs>
<linearGradient id="paint0_linear_1059_5396" x1="89.9998" y1="51.6665" x2="89.9998" y2="78.3332" gradientUnits="userSpaceOnUse">
<stop stop-color="#232526"/>
<stop offset="1" stop-color="#434343"/>
</linearGradient>
</defs>
</svg>
