<svg width="110" height="80" viewBox="0 0 110 80" fill="none" xmlns="http://www.w3.org/2000/svg">
<path fill-rule="evenodd" clip-rule="evenodd" d="M27.7202 53.6001H67.7602C67.9868 53.6001 68.2076 53.5779 68.4202 53.5357C68.6328 53.5779 68.8537 53.6001 69.0802 53.6001H91.9602C93.6613 53.6001 95.0402 52.3465 95.0402 50.8001C95.0402 49.2537 93.6613 48.0001 91.9602 48.0001H89.3202C87.6192 48.0001 86.2402 46.7465 86.2402 45.2001C86.2402 43.6537 87.6192 42.4001 89.3202 42.4001H97.6802C99.3813 42.4001 100.76 41.1465 100.76 39.6001C100.76 38.0537 99.3813 36.8001 97.6802 36.8001H88.0002C89.7013 36.8001 91.0802 35.5465 91.0802 34.0001C91.0802 32.4537 89.7013 31.2001 88.0002 31.2001H59.8402C61.5413 31.2001 62.9202 29.9465 62.9202 28.4001C62.9202 26.8537 61.5413 25.6001 59.8402 25.6001H34.7602C33.0592 25.6001 31.6802 26.8537 31.6802 28.4001C31.6802 29.9465 33.0592 31.2001 34.7602 31.2001H17.1602C15.4592 31.2001 14.0802 32.4537 14.0802 34.0001C14.0802 35.5465 15.4592 36.8001 17.1602 36.8001H28.1602C29.8613 36.8001 31.2402 38.0537 31.2402 39.6001C31.2402 41.1465 29.8613 42.4001 28.1602 42.4001H10.5602C8.85919 42.4001 7.48022 43.6537 7.48022 45.2001C7.48022 46.7465 8.85919 48.0001 10.5602 48.0001H27.7202C26.0192 48.0001 24.6402 49.2537 24.6402 50.8001C24.6402 52.3465 26.0192 53.6001 27.7202 53.6001ZM99.4403 53.6C101.141 53.6 102.52 52.3464 102.52 50.8C102.52 49.2536 101.141 48 99.4403 48C97.7392 48 96.3603 49.2536 96.3603 50.8C96.3603 52.3464 97.7392 53.6 99.4403 53.6Z" fill="#F2F4F7"/>
<path fill-rule="evenodd" clip-rule="evenodd" d="M49.7724 44.9229C49.738 45.1441 49.7202 45.3703 49.7202 45.6002C49.7202 48.2512 52.0841 50.4002 55.0002 50.4002C57.9163 50.4002 60.2802 48.2512 60.2802 45.6002C60.2802 45.3703 60.2624 45.1441 60.228 44.9229H73.0402V55.6002C73.0402 56.2629 72.4492 56.8002 71.7202 56.8002H38.2802C37.5512 56.8002 36.9602 56.2629 36.9602 55.6002V44.9229H49.7724Z" fill="white"/>
<path fill-rule="evenodd" clip-rule="evenodd" d="M60.7202 44.7999C60.7202 47.6718 58.1593 49.9999 55.0002 49.9999C51.8411 49.9999 49.2802 47.6718 49.2802 44.7999C49.2802 44.7069 49.2829 44.6144 49.2882 44.5225H36.9602L41.1668 33.2154C41.3481 32.728 41.8512 32.3999 42.4172 32.3999H67.5832C68.1492 32.3999 68.6523 32.728 68.8336 33.2154L73.0402 44.5225H60.7122C60.7175 44.6144 60.7202 44.7069 60.7202 44.7999Z" fill="white"/>
<path fill-rule="evenodd" clip-rule="evenodd" d="M59.8829 45.1818C59.8829 47.401 57.6967 49.6 54.9999 49.6C52.3032 49.6 50.117 47.401 50.117 45.1818C50.117 45.1099 50.1193 44.6385 50.1238 44.5675H40.9199L44.5109 36.6302C44.6657 36.2535 45.0951 36 45.5783 36H64.4215C64.9047 36 65.3341 36.2535 65.4889 36.6302L69.0799 44.5675H59.876C59.8806 44.6385 59.8829 45.1099 59.8829 45.1818Z" fill="#F2F4F7"/>
<path fill-rule="evenodd" clip-rule="evenodd" d="M37.5103 44.6048V55.1999C37.5103 55.5865 37.855 55.8999 38.2803 55.8999H71.7203C72.1455 55.8999 72.4903 55.5865 72.4903 55.1999V44.6048L68.3127 33.3756C68.2069 33.0913 67.9134 32.8999 67.5832 32.8999H42.4173C42.0871 32.8999 41.7936 33.0913 41.6879 33.3756L37.5103 44.6048Z" stroke="#667085" stroke-width="1.83333"/>
<path d="M43.1203 44.3999C44.8524 44.3999 46.7217 44.3999 48.7281 44.3999C49.5537 44.3999 49.5537 44.9273 49.5537 45.1999C49.5537 47.8509 51.972 49.9999 54.9551 49.9999C57.9383 49.9999 60.3566 47.8509 60.3566 45.1999C60.3566 44.9273 60.3566 44.3999 61.1822 44.3999H72.1603M39.8528 44.3999H40.9203H39.8528Z" stroke="#667085" stroke-width="1.83333" stroke-linecap="round" stroke-linejoin="round"/>
<path d="M66.0437 23.3212L61.1599 28.3024M54.6037 21.6001V28.3024V21.6001ZM43.1199 23.3212L48.0037 28.3024L43.1199 23.3212Z" stroke="#667085" stroke-width="1.83333" stroke-linecap="round" stroke-linejoin="round"/>
</svg>
