<svg width="20" height="21" viewBox="0 0 20 21" fill="none" xmlns="http://www.w3.org/2000/svg">
<g clip-path="url(#clip0_1024_4472)">
<path d="M19.805 10.3581C19.805 9.67837 19.7499 8.99492 19.6323 8.32617H10.2V12.177H15.6015C15.3773 13.419 14.6571 14.5176 13.6026 15.2158V17.7144H16.825C18.7174 15.9727 19.805 13.4006 19.805 10.3581Z" fill="#4285F4"/>
<path d="M10.2 20.1267C12.897 20.1267 15.1715 19.2412 16.8287 17.7126L13.6062 15.214C12.7096 15.824 11.5522 16.1694 10.2037 16.1694C7.5948 16.1694 5.38279 14.4093 4.58911 12.043H1.26373V14.6188C2.96133 17.9956 6.41898 20.1267 10.2 20.1267Z" fill="#34A853"/>
<path d="M4.58546 12.0432C4.16657 10.8013 4.16657 9.45642 4.58546 8.21446V5.63867H1.26376C-0.154572 8.46432 -0.154572 11.7934 1.26376 14.619L4.58546 12.0432Z" fill="#FBBC04"/>
<path d="M10.2 4.085C11.6257 4.06296 13.0036 4.59943 14.0361 5.58418L16.8911 2.72913C15.0833 1.03154 12.6839 0.0982315 10.2 0.127627C6.41898 0.127627 2.96133 2.2588 1.26373 5.63929L4.58543 8.21508C5.37544 5.84506 7.59113 4.085 10.2 4.085Z" fill="#EA4335"/>
</g>
<defs>
<clipPath id="clip0_1024_4472">
<rect width="20" height="20" fill="white" transform="translate(0 0.126953)"/>
</clipPath>
</defs>
</svg>
