<svg width="16" height="15" viewBox="0 0 16 15" fill="none" xmlns="http://www.w3.org/2000/svg">
<path d="M4.66683 14.1663H2.66683C2.31321 14.1663 1.97407 14.0259 1.72402 13.7758C1.47397 13.5258 1.3335 13.1866 1.3335 12.833V8.16634C1.3335 7.81272 1.47397 7.47358 1.72402 7.22353C1.97407 6.97348 2.31321 6.83301 2.66683 6.83301H4.66683M9.3335 5.49967V2.83301C9.3335 2.30257 9.12278 1.79387 8.74771 1.41879C8.37264 1.04372 7.86393 0.833008 7.3335 0.833008L4.66683 6.83301V14.1663H12.1868C12.5084 14.17 12.8204 14.0573 13.0654 13.849C13.3105 13.6407 13.4719 13.3509 13.5202 13.033L14.4402 7.03301C14.4692 6.84191 14.4563 6.6468 14.4024 6.46118C14.3485 6.27556 14.2549 6.10387 14.1281 5.95802C14.0012 5.81216 13.8442 5.69563 13.6679 5.61649C13.4915 5.53734 13.3001 5.49749 13.1068 5.49967H9.3335Z" stroke="#667085" stroke-width="1.5" stroke-linecap="round" stroke-linejoin="round"/>
</svg>
