<svg width="82" height="82" viewBox="0 0 82 82" fill="none" xmlns="http://www.w3.org/2000/svg">
<path d="M0 8C0 3.58172 3.58172 0 8 0H74C78.4183 0 82 3.58172 82 8V74C82 78.4183 78.4183 82 74 82H8C3.58172 82 0 78.4183 0 74V8Z" fill="#EAECF0"/>
<path d="M34 50H48C49.1046 50 50 49.1046 50 48V34C50 32.8954 49.1046 32 48 32H34C32.8954 32 32 32.8954 32 34V48C32 49.1046 32.8954 50 34 50ZM34 50L45 39L50 44M39 37.5C39 38.3284 38.3284 39 37.5 39C36.6716 39 36 38.3284 36 37.5C36 36.6716 36.6716 36 37.5 36C38.3284 36 39 36.6716 39 37.5Z" stroke="#98A2B3" stroke-width="2" stroke-linecap="round" stroke-linejoin="round"/>
</svg>
