<svg width="32" height="32" viewBox="0 0 32 32" fill="none" xmlns="http://www.w3.org/2000/svg">
<circle cx="16" cy="16" r="16" fill="#EAECF0"/>
<g clip-path="url(#clip0_1150_3042)">
<path d="M8.66663 10.667V14.667M8.66663 14.667H12.6666M8.66663 14.667L11.76 11.7604C12.4765 11.0435 13.3629 10.5198 14.3365 10.2382C15.3101 9.9566 16.3392 9.92621 17.3278 10.1499C18.3163 10.3736 19.2321 10.844 19.9896 11.5173C20.7472 12.1906 21.3218 13.0449 21.66 14.0004M23.3333 21.3337V17.3337M23.3333 17.3337H19.3333M23.3333 17.3337L20.24 20.2404C19.5235 20.9572 18.637 21.4809 17.6634 21.7625C16.6898 22.0441 15.6607 22.0745 14.6721 21.8509C13.6836 21.6272 12.7678 21.1568 12.0103 20.4834C11.2527 19.8101 10.6781 18.9559 10.34 18.0004" stroke="#667085" stroke-width="2" stroke-linecap="round" stroke-linejoin="round"/>
</g>
<defs>
<clipPath id="clip0_1150_3042">
<rect width="16" height="16" fill="white" transform="translate(8 8)"/>
</clipPath>
</defs>
</svg>
