<svg width="32" height="32" viewBox="0 0 32 32" fill="none" xmlns="http://www.w3.org/2000/svg">
<path d="M22.6668 28V25.3333C22.6668 23.9188 22.1049 22.5623 21.1047 21.5621C20.1045 20.5619 18.748 20 17.3335 20H6.66683C5.25234 20 3.89579 20.5619 2.89559 21.5621C1.8954 22.5623 1.3335 23.9188 1.3335 25.3333V28" fill="url(#paint0_linear_793_674)"/>
<path d="M12.0002 14.6667C14.9457 14.6667 17.3335 12.2789 17.3335 9.33333C17.3335 6.38781 14.9457 4 12.0002 4C9.05464 4 6.66683 6.38781 6.66683 9.33333C6.66683 12.2789 9.05464 14.6667 12.0002 14.6667Z" fill="url(#paint1_linear_793_674)"/>
<path d="M30.6668 28V25.3333C30.6659 24.1516 30.2726 23.0037 29.5486 22.0698C28.8247 21.1358 27.811 20.4688 26.6668 20.1733" fill="url(#paint2_linear_793_674)"/>
<path d="M21.3335 4.17333C22.4807 4.46707 23.4975 5.13427 24.2237 6.06975C24.9498 7.00523 25.344 8.15577 25.344 9.34C25.344 10.5242 24.9498 11.6748 24.2237 12.6103C23.4975 13.5457 22.4807 14.2129 21.3335 14.5067" fill="url(#paint3_linear_793_674)"/>
<path d="M22.6668 28V25.3333C22.6668 23.9188 22.1049 22.5623 21.1047 21.5621C20.1045 20.5619 18.748 20 17.3335 20H6.66683C5.25234 20 3.89579 20.5619 2.89559 21.5621C1.8954 22.5623 1.3335 23.9188 1.3335 25.3333V28M30.6668 28V25.3333C30.6659 24.1516 30.2726 23.0037 29.5486 22.0698C28.8247 21.1358 27.811 20.4688 26.6668 20.1733M21.3335 4.17333C22.4807 4.46707 23.4975 5.13427 24.2237 6.06975C24.9498 7.00523 25.344 8.15577 25.344 9.34C25.344 10.5242 24.9498 11.6748 24.2237 12.6103C23.4975 13.5457 22.4807 14.2129 21.3335 14.5067M17.3335 9.33333C17.3335 12.2789 14.9457 14.6667 12.0002 14.6667C9.05464 14.6667 6.66683 12.2789 6.66683 9.33333C6.66683 6.38781 9.05464 4 12.0002 4C14.9457 4 17.3335 6.38781 17.3335 9.33333Z" stroke="url(#paint4_linear_793_674)" stroke-width="2" stroke-linecap="round" stroke-linejoin="round"/>
<defs>
<linearGradient id="paint0_linear_793_674" x1="16.0002" y1="4" x2="16.0002" y2="28" gradientUnits="userSpaceOnUse">
<stop stop-color="#232526"/>
<stop offset="1" stop-color="#434343"/>
</linearGradient>
<linearGradient id="paint1_linear_793_674" x1="16.0002" y1="4" x2="16.0002" y2="28" gradientUnits="userSpaceOnUse">
<stop stop-color="#232526"/>
<stop offset="1" stop-color="#434343"/>
</linearGradient>
<linearGradient id="paint2_linear_793_674" x1="16.0002" y1="4" x2="16.0002" y2="28" gradientUnits="userSpaceOnUse">
<stop stop-color="#232526"/>
<stop offset="1" stop-color="#434343"/>
</linearGradient>
<linearGradient id="paint3_linear_793_674" x1="16.0002" y1="4" x2="16.0002" y2="28" gradientUnits="userSpaceOnUse">
<stop stop-color="#232526"/>
<stop offset="1" stop-color="#434343"/>
</linearGradient>
<linearGradient id="paint4_linear_793_674" x1="16.0002" y1="4" x2="16.0002" y2="28" gradientUnits="userSpaceOnUse">
<stop stop-color="#232526"/>
<stop offset="1" stop-color="#434343"/>
</linearGradient>
</defs>
</svg>
