<svg width="24" height="25" viewBox="0 0 24 25" fill="none" xmlns="http://www.w3.org/2000/svg">
<path d="M5.25 9.5V15.5C5.25 15.6989 5.17098 15.8897 5.03033 16.0303C4.88968 16.171 4.69891 16.25 4.5 16.25C4.30109 16.25 4.11032 16.171 3.96967 16.0303C3.82902 15.8897 3.75 15.6989 3.75 15.5V9.5C3.75 9.30109 3.82902 9.11032 3.96967 8.96967C4.11032 8.82902 4.30109 8.75 4.5 8.75C4.69891 8.75 4.88968 8.82902 5.03033 8.96967C5.17098 9.11032 5.25 9.30109 5.25 9.5ZM8.25 2.75C8.05109 2.75 7.86032 2.82902 7.71967 2.96967C7.57902 3.11032 7.5 3.30109 7.5 3.5V21.5C7.5 21.6989 7.57902 21.8897 7.71967 22.0303C7.86032 22.171 8.05109 22.25 8.25 22.25C8.44891 22.25 8.63968 22.171 8.78033 22.0303C8.92098 21.8897 9 21.6989 9 21.5V3.5C9 3.30109 8.92098 3.11032 8.78033 2.96967C8.63968 2.82902 8.44891 2.75 8.25 2.75ZM12 5.75C11.8011 5.75 11.6103 5.82902 11.4697 5.96967C11.329 6.11032 11.25 6.30109 11.25 6.5V18.5C11.25 18.6989 11.329 18.8897 11.4697 19.0303C11.6103 19.171 11.8011 19.25 12 19.25C12.1989 19.25 12.3897 19.171 12.5303 19.0303C12.671 18.8897 12.75 18.6989 12.75 18.5V6.5C12.75 6.30109 12.671 6.11032 12.5303 5.96967C12.3897 5.82902 12.1989 5.75 12 5.75ZM15.75 8.75C15.5511 8.75 15.3603 8.82902 15.2197 8.96967C15.079 9.11032 15 9.30109 15 9.5V15.5C15 15.6989 15.079 15.8897 15.2197 16.0303C15.3603 16.171 15.5511 16.25 15.75 16.25C15.9489 16.25 16.1397 16.171 16.2803 16.0303C16.421 15.8897 16.5 15.6989 16.5 15.5V9.5C16.5 9.30109 16.421 9.11032 16.2803 8.96967C16.1397 8.82902 15.9489 8.75 15.75 8.75ZM19.5 7.25C19.3011 7.25 19.1103 7.32902 18.9697 7.46967C18.829 7.61032 18.75 7.80109 18.75 8V17C18.75 17.1989 18.829 17.3897 18.9697 17.5303C19.1103 17.671 19.3011 17.75 19.5 17.75C19.6989 17.75 19.8897 17.671 20.0303 17.5303C20.171 17.3897 20.25 17.1989 20.25 17V8C20.25 7.80109 20.171 7.61032 20.0303 7.46967C19.8897 7.32902 19.6989 7.25 19.5 7.25Z" fill="currentColor"/>
</svg>
